<?xml version="1.0" encoding="utf-8"?>
<!-- Generator: Adobe Illustrator 16.0.0, SVG Export Plug-In . SVG Version: 6.00 Build 0)  -->
<!DOCTYPE svg PUBLIC "-//W3C//DTD SVG 1.1//EN" "http://www.w3.org/Graphics/SVG/1.1/DTD/svg11.dtd">
<svg version="1.1" id="Layer_1" xmlns="http://www.w3.org/2000/svg" xmlns:xlink="http://www.w3.org/1999/xlink" x="0px" y="0px"
	 width="52.443px" height="100px" viewBox="19.527 0.019 52.443 100" enable-background="new 19.527 0.019 52.443 100"
	 xml:space="preserve">
<g>
	<path d="M46.505,50.493c1.053,0.836,4.27,0.821,5.376,0.061"/>
	<path d="M52.588,50.809c-0.052,0.143-0.146,0.271-0.28,0.361c-1.301,0.896-4.889,1.003-6.267-0.091
		c-0.324-0.257-0.378-0.729-0.121-1.052c0.257-0.323,0.729-0.377,1.051-0.121c0.768,0.607,3.618,0.627,4.485,0.03
		c0.342-0.234,0.807-0.148,1.042,0.191C52.642,50.335,52.667,50.588,52.588,50.809z"/>
</g>
<g>
	<path d="M58.483,50.928c1.055,0.835,4.271,0.823,5.38,0.063"/>
	<path d="M64.567,51.245c-0.049,0.141-0.146,0.27-0.279,0.362c-1.303,0.894-4.89,0.998-6.269-0.094
		c-0.324-0.256-0.386-0.724-0.123-1.052c0.259-0.323,0.729-0.376,1.053-0.122c0.768,0.609,3.621,0.627,4.492,0.031
		c0.34-0.234,0.806-0.148,1.04,0.194C64.622,50.773,64.647,51.026,64.567,51.245z"/>
</g>
<g>
	<path d="M35.455,50.068c1.053,0.836,4.27,0.823,5.378,0.061"/>
	<path d="M41.538,50.381c-0.051,0.144-0.146,0.272-0.28,0.364c-1.302,0.896-4.892,1.003-6.268-0.092
		c-0.325-0.255-0.377-0.73-0.121-1.051c0.257-0.324,0.729-0.378,1.053-0.121c0.766,0.609,3.618,0.628,4.487,0.029
		c0.34-0.234,0.806-0.147,1.042,0.192C41.592,49.911,41.616,50.163,41.538,50.381z"/>
</g>
<rect x="39.459" y="73.777" transform="matrix(0.5259 -0.8505 0.8505 0.5259 -43.2608 71.4406)" width="5.988" height="1.497"/>
<path d="M50.075,0.019c-3.043-0.034-6.158,3.31-7.211,5.876c-0.982-0.741-2.083-1.15-3.186-1.167
	c-3.044-0.047-5.335,3.233-6.13,5.448c-0.235,0.658-0.364,1.259-0.38,1.788l-0.125,4.059c-0.02,0.617-0.001,1.412,0.248,2.146
	c-0.303,0.665-0.357,1.332-0.377,1.988l-0.274,8.818c-0.006,0.188-0.025,0.373-0.042,0.548c-0.047,0.473-0.104,1.061,0.041,1.682
	c-0.545,1.022-0.551,2.22-0.529,3.317c0.008,0.321,0.016,0.653,0.009,0.912L31.21,46.08c-0.967-0.936-2.207-1.581-3.582-1.768
	c-1.121-0.294-2.285-0.272-3.391,0.096l-0.86,0.286c-1.481,0.493-2.657,1.763-3.308,3.576c-0.686,1.91-0.725,4.265-0.102,6.139
	l0.541,1.659c-0.011,0.028-0.023,0.062-0.034,0.093c-1.115,3.103-0.564,6.836-0.033,10.445c0.304,2.068,0.62,4.208,0.598,6.124
	c-0.076,6.71,0.256,13.126,5.091,17.912c4.638,4.59,10.35,9.294,17.556,9.375c8.625,0.099,16.261-6.233,19.146-8.961
	c3.07-2.906,5.969-5.647,7.378-9.563c0.269-0.748,0.479-1.521,0.63-2.325l0.288-0.801c0.039-0.113,0.098-0.671,0.154-1.537
	c0.077-0.165,0.151-0.332,0.219-0.518l0,0c0.302-0.842,0.454-1.824,0.469-3.004c0.01-0.809-0.169-1.741-0.529-2.722
	c-0.032-6.979-0.741-16.558-3.788-19.573c-0.059-0.059-0.123-0.107-0.184-0.162c0.049-0.338,0.076-0.677,0.066-1.023l-1.237-12.8
	c-0.034-1.427-0.085-3.129-1.053-4.557c0.241-0.768,0.186-1.53,0.136-2.206c-0.016-0.205-0.032-0.411-0.036-0.559l0.127-8.792
	c-0.021-0.883-0.222-1.463-0.551-2.013c0.185-0.691,0.153-1.42,0.131-1.968l-0.112-4.788c-0.056-2.404-2.805-6.825-6.579-6.796
	c-1.236,0.01-2.275,0.518-3.124,1.26c0,0.054,0.01,0.11,0.009,0.166c0.017-1.413-0.356-2.946-0.991-4.101
	C53.318,0.981,51.835,0.039,50.075,0.019z M36.145,17.262c-0.013-0.024-0.139-0.269-0.111-1.145l0.125-4.059
	c0.003-0.098,0.029-0.376,0.206-0.867c0.595-1.655,2.083-3.486,3.266-3.467c0.856,0.013,1.577,0.639,1.933,1.011
	c0.39,0.408,0.665,0.846,0.867,1.257c0.256,0.522,0.386,0.996,0.377,1.271l-0.152,4.908c-0.015,0.445-0.062,0.783-0.143,1.006
	c-0.028,0.077-0.046,0.103-0.042,0.103l-0.137,0.14l-0.01,0.327c-1.06,0.438-3.585,0.39-4.307-0.132
	c-0.334-0.245-0.803-0.169-1.045,0.165c-0.063,0.088-0.104,0.184-0.125,0.283L36.145,17.262z M23.802,56.517l-0.991-3.045
	c-0.418-1.256-0.389-2.9,0.076-4.187c0.193-0.54,0.637-1.483,1.433-1.747l0.86-0.286c0.815-0.271,1.715-0.165,2.528,0.299
	c0.868,0.496,1.531,1.33,1.855,2.298l1.351,4.594c0.076,0.227,0.136,0.474,0.188,0.725c-0.038,0.014-0.076,0.028-0.111,0.044
	c-1.936,0.702-3.763,1.367-4.718,2.997c-0.094,0.16-0.176,0.333-0.241,0.519c-0.109,0.305-0.169,0.638-0.19,0.985
	C24.961,58.788,24.17,57.622,23.802,56.517z M52.218,60.988c0.592,0.312,1.251,0.677,1.941,1.063
	c2.232,1.24,4.763,2.649,6.791,3.195c4.119,1.105,6.564,3.715,7.532,5.948c0.016,1.933-0.024,3.614-0.083,4.78l-0.257-0.002
	c-0.02,1.678-0.267,3.152-0.755,4.508c-1.165,3.242-3.691,5.633-6.616,8.401c-2.042,1.933-9.31,8.229-17.053,8.141
	c-6.122-0.07-11.059-4.13-15.484-8.511c-4.006-3.963-4.273-9.479-4.202-15.747c0.023-2.153-0.308-4.411-0.63-6.596
	c-0.28-1.9-0.542-3.736-0.573-5.408c1.323,1.692,3.12,3.197,4.973,3.568c0.632,0.647,1.403,1.208,2.308,1.61
	c1.489,0.659,6.758,0.426,8.924,0.281c1.03,1.316,2.961,3.322,4.187,3.98l0.115,0.062l3.697,1.217
	c0.169,0.219,0.383,0.46,0.635,0.728c-0.056,0.074-0.111,0.146-0.168,0.222c-1.413,1.833-3.348,4.346-6.201,10.426l1.017,0.477
	l1.017,0.479c0.09-0.192,0.178-0.374,0.268-0.56c2.595-5.441,4.301-7.66,5.678-9.45c0.002-0.002,0.003-0.004,0.005-0.006
	c0.446,0.418,0.942,0.873,1.507,1.388c0.402,0.365,0.729,0.661,0.906,0.834c0.558,0.541,1.067,1.023,1.564,1.477l0.024-2.3
	l0.021-1.772c-0.149-0.137-0.315-0.287-0.501-0.456c-0.4-0.362-1.106-1.006-1.784-1.647c-0.291-0.275-0.575-0.551-0.828-0.804
	c-0.355-0.354-0.65-0.666-0.81-0.875c-0.037-0.049-0.065-0.092-0.086-0.128l-0.284-0.526l-4.474-1.476
	c-0.95-0.583-3.036-2.834-3.49-3.602l-0.502-0.853l-0.979,0.126c-1.375,0.179-5.951,0.302-7.691,0.121
	c-0.248-0.026-0.44-0.06-0.554-0.099c-1.008-0.445-1.688-1.21-2.084-1.925c-0.36-0.651-0.485-1.267-0.382-1.555l0,0
	c0.33-0.564,1.226-0.975,2.332-1.395c0.266-0.102,0.541-0.202,0.826-0.306c0.689-0.251,1.46-0.534,2.267-0.883
	c0.751-0.327,1.532-0.709,2.312-1.189l3.818,0.016c0.022,0.012,0.045,0.021,0.067,0.033l0.042,0.019
	c0.001,0.003,0.004,0.007,0.009,0.015l0.564,0.707l0.889-0.172c1.367-0.264,3.52,0.214,5.375,1.192l4.727,3.148L52.218,60.988z
	 M61.943,12.213l0.104,4.553l0.01,0.291c0.013,0.289,0.035,0.81-0.025,1.05l-0.775,0.837l0.098,0.128
	c-1.147,0.091-2.505-0.043-3.003-0.4c-0.335-0.241-0.803-0.166-1.044,0.168c-0.246,0.339-0.167,0.804,0.169,1.046
	c1.021,0.735,3.265,0.87,4.873,0.554c0.103,0.174,0.122,0.283,0.128,0.488L62.35,29.72c0.004,0.256,0.024,0.515,0.042,0.77
	c0.033,0.415,0.07,0.872-0.046,1.158l-1.043,1.121l0.133,0.12c-1.19,0.133-2.707,0.009-3.239-0.375
	c-0.334-0.243-0.802-0.168-1.044,0.167c-0.053,0.073-0.082,0.152-0.106,0.231l-1.058-1.059c-0.187-0.187-0.504-0.71-0.537-2.123
	l-0.203-8.818c-0.001-0.063-0.002-0.113-0.002-0.167l-0.072,6.325c-0.003,0.306-0.023,0.654-0.051,1.009
	c0.027-0.355,0.047-0.704,0.051-1.009l0.108-9.69c0.003-0.229,0.031-0.428,0.058-0.611c0.061-0.445,0.135-1.006-0.041-1.641
	c0.104-0.348,0.131-0.691,0.126-1.017l0.158-1.603l0.009-0.183c-0.01-0.36,0.099-0.888,0.285-1.409
	c0.458-1.275,1.411-2.566,2.508-2.574C60.203,8.329,61.916,11.12,61.943,12.213z M55.393,34.472
	c0.014-1.313-0.133-2.539-0.408-3.571C55.26,31.934,55.406,33.159,55.393,34.472z M55.37,13.332c-0.001-0.004,0-0.01-0.001-0.016
	c-0.019-0.169-0.039-0.33-0.036-0.516c-0.002,0.186,0.018,0.347,0.037,0.516C55.37,13.322,55.369,13.328,55.37,13.332z
	 M51.629,4.117c0.469,0.852,0.628,1.911,0.619,2.658l0.089,6.029c-0.002,0.254,0.023,0.536,0.055,0.824
	c0.008,0.072,0.016,0.156,0.021,0.238c-0.173-0.03-0.358-0.004-0.521,0.095c-0.879,0.549-3.764,0.528-4.54-0.034
	c-0.334-0.242-0.804-0.167-1.046,0.169c-0.246,0.337-0.167,0.804,0.168,1.045c1.202,0.871,4.101,0.903,5.657,0.348l0.276,0.438
	c0.013,0.061-0.018,0.281-0.039,0.441c-0.039,0.293-0.079,0.613-0.083,0.978l-0.109,9.689c-0.008,0.556-0.037,1.358-0.23,1.893
	c-0.048,0.133-0.091,0.209-0.119,0.251l-0.537,0.774l0.02,0.034c-1.148,0.361-3.455,0.286-4.135-0.207
	c-0.334-0.245-0.802-0.169-1.045,0.165c-0.246,0.341-0.168,0.805,0.167,1.046c1.211,0.879,4.148,0.904,5.696,0.333
	c0.228,0.676,0.422,1.732,0.407,3.07l-0.57,13.272c0,0.031-0.004,0.062-0.004,0.096c1.073,0.482,1.981,1.237,2.6,2.179
	c0.193-0.334,0.436-0.641,0.692-0.932l-0.122-5.287l-0.174,4.025l0.562-13.029c0.155-0.25,0.337-0.49,0.577-0.719l1.066-1.013
	c-0.053,0.275,0.052,0.568,0.293,0.742c1.146,0.83,3.833,0.893,5.431,0.417c0.439,0.626,0.519,1.509,0.554,3.009l1.136,11.707
	c0.191,0.201,0.355,0.423,0.518,0.646c0.058,0.081,0.12,0.156,0.175,0.239c0.135,0.206,0.24,0.427,0.345,0.649
	c0.044,0.091,0.1,0.177,0.137,0.272c0.094,0.23,0.157,0.473,0.218,0.717c0.022,0.097,0.062,0.187,0.078,0.282
	c0.067,0.344,0.102,0.695,0.098,1.057c-0.004,0.295-0.037,0.583-0.09,0.863c-0.04,0.227-0.09,0.447-0.157,0.663
	c0.114-0.12,0.223-0.247,0.328-0.375c1.336,2.251,1.977,7.26,2.241,12.107c-1.619-1.542-3.799-2.873-6.601-3.626
	c-1.671-0.448-4.029-1.761-6.11-2.918c-0.688-0.383-1.343-0.746-1.938-1.062l-4.721-3.147l-0.125-0.075
	c-1.761-0.941-4.342-1.805-6.641-1.628c-0.15-0.098-0.3-0.171-0.46-0.244c-0.071-0.033-0.159-0.072-0.27-0.131l-0.325-0.172
	l-5.422-0.021l-0.376,0.245c-0.474,0.312-0.956,0.569-1.439,0.81c-0.006,0.003-0.013,0.004-0.018,0.008
	c-0.011-0.065-0.024-0.132-0.034-0.197c-0.024-0.092-0.046-0.186-0.075-0.271l-0.568-1.932c0.071-0.015,0.064-0.273,0.046-0.568
	c0.186-0.279,0.394-0.548,0.628-0.794c-0.003-0.074-0.007-0.146-0.005-0.229l1.229-14.414c0.013-0.394,0.004-0.779-0.003-1.152
	c-0.015-0.7-0.028-1.302,0.117-1.706c0.048-0.134,0.114-0.243,0.207-0.343l0.809-0.875l-0.67-0.984
	c-0.053-0.079-0.016-0.455,0.012-0.731c0.024-0.242,0.047-0.493,0.055-0.75l0.275-8.814c0.013-0.439,0.036-0.644,0.087-0.786
	c0.022-0.062,0.07-0.169,0.213-0.367l0.633-0.811c0.019,0.207,0.118,0.403,0.297,0.535c1.104,0.8,3.636,0.893,5.25,0.474
	c0.13,0.231,0.159,0.419,0.14,1.008l-0.263,8.379c0.048,0.291,0.102,0.544,0.161,0.754c-0.062,0.121-0.11,0.249-0.161,0.375
	c0.002,0.039,0.001,0.081,0.002,0.12c0.01,0.237,0.021,0.517-0.005,0.691c-1.113,0.394-3.515,0.33-4.213-0.176
	c-0.335-0.241-0.803-0.167-1.046,0.168c-0.246,0.336-0.167,0.802,0.168,1.046c1.008,0.729,3.215,0.868,4.817,0.566l0.3,0.356
	c0.322,0.386,0.292,1.016,0.212,2.097c-0.027,0.348-0.053,0.704-0.064,1.032l-0.695,12.426c-0.011,0.351-0.057,0.677-0.118,0.993
	c0.729,0.403,1.365,0.935,1.862,1.57c0.241-0.54,0.57-1.034,0.966-1.472c-0.147-0.53-0.24-1.081-0.233-1.644l0.579-12.89
	c0.003-0.303,0-0.615-0.003-0.929c-0.01-1.033-0.022-2.101,0.23-2.801c0.062-0.17,0.136-0.309,0.222-0.41l0.738-0.836l-0.619-0.936
	c-0.012-0.024-0.301-0.613-0.272-3.087l0.252-8.429l0.001-0.43c0-0.583-0.001-1.117,0.171-1.375l0.622-0.948l-0.733-0.86
	c-0.033-0.081-0.023-0.394-0.017-0.602l0.064-5.369c0.001-0.041,0.01-0.198,0.117-0.495c0.633-1.76,3.005-4.193,4.473-4.176
	C50.464,3.018,51.087,3.139,51.629,4.117z"/>
</svg>
